<svg xmlns="http://www.w3.org/2000/svg" width="897" height="1275" viewBox="0 0 897 1275">
    <g fill="none" fill-rule="evenodd">
        <path fill="#F0705A" d="M711.792 644.685a7 7 0 0 1-13.586-3.37 7 7 0 0 1 13.586 3.37M469.972 564.295a8.998 8.998 0 0 1-8.264 9.676 9 9 0 0 1-1.415-17.943 8.996 8.996 0 0 1 9.679 8.267M398.861 962.825a7 7 0 1 1-11.723-7.65 7 7 0 0 1 11.723 7.65M620.108 228.138c5.17.888 8.642 5.798 7.753 10.969-.885 5.17-5.798 8.642-10.969 7.755-5.169-.89-8.642-5.8-7.753-10.97.887-5.171 5.798-8.64 10.969-7.754M553.478 278.169a8 8 0 1 1-10.955 11.662 8 8 0 0 1 10.955-11.662M549.997 224.762a9.001 9.001 0 0 1-8.76 9.235c-4.97.13-9.105-3.792-9.234-8.759a8.998 8.998 0 0 1 8.758-9.235 9.003 9.003 0 0 1 9.236 8.759M569.576 146.854a8.5 8.5 0 0 1-5.43 10.722c-4.46 1.46-9.26-.97-10.721-5.43a8.499 8.499 0 0 1 16.15-5.292M460.092 227c-5.522.05-10.04-4.385-10.092-9.908-.05-5.522 4.387-10.041 9.91-10.092 5.522-.052 10.04 4.385 10.09 9.908.052 5.522-4.385 10.04-9.908 10.092M278.867 320.924c.87 5.17-2.617 10.071-7.79 10.943a9.5 9.5 0 0 1-10.944-7.79 9.5 9.5 0 0 1 7.79-10.944 9.5 9.5 0 0 1 10.944 7.79M259.182 302.519a7.997 7.997 0 0 1-10.702 3.663 7.999 7.999 0 0 1 7.038-14.364 7.996 7.996 0 0 1 3.664 10.701M205.261 271.832c2.025 4.838-.256 10.404-5.093 12.43-4.84 2.024-10.404-.257-12.43-5.094-2.024-4.84.257-10.404 5.094-12.43 4.838-2.024 10.404.257 12.43 5.094M248.524 195.787a7.999 7.999 0 0 1-11.31-.264 7.998 7.998 0 0 1 .262-11.31 7.997 7.997 0 0 1 11.31.265 7.998 7.998 0 0 1-.262 11.309M352.896 72.411c-2.714 5.741-9.566 8.198-15.307 5.484-5.74-2.712-8.197-9.566-5.485-15.306 2.714-5.741 9.567-8.198 15.306-5.484 5.743 2.714 8.197 9.566 5.486 15.306M531.581 41.522c-3.6 4.186-9.915 4.66-14.102 1.06-4.188-3.602-4.66-9.916-1.06-14.104 3.601-4.186 9.916-4.66 14.103-1.06 4.186 3.604 4.66 9.916 1.06 14.104"/>
        <path fill="#F6D960" d="M508.4 1122.281c-1.729 7.949-6.67 13.592-11.03 12.607-4.364-.986-6.499-8.225-4.77-16.171 1.73-7.947 6.669-13.59 11.032-12.605 4.364.982 6.497 8.223 4.768 16.17M527.586 938.05c-3.164 5.26-8.227 8.155-11.313 6.47-3.086-1.687-3.021-7.314.142-12.573 3.164-5.257 8.227-8.152 11.313-6.467 3.084 1.683 3.021 7.312-.142 12.57M854.795 657.3c-6.553 1.682-12.665.228-13.659-3.253-.99-3.48 3.519-7.665 10.07-9.347 6.551-1.683 12.668-.227 13.657 3.252.992 3.48-3.516 7.665-10.068 9.349M277.753 715.74c-2.367 6.227-7.31 10.274-11.04 9.038-3.73-1.236-4.834-7.288-2.466-13.515 2.368-6.23 7.31-10.277 11.04-9.041 3.729 1.238 4.834 7.288 2.466 13.517M749.315 334.436c6.03 1.291 10.332 5.052 9.605 8.4-.725 3.35-6.205 5.019-12.235 3.727-6.032-1.29-10.332-5.05-9.605-8.4.725-3.348 6.203-5.017 12.235-3.727M501.608 350.875c-4.959.642-9.25-1.244-9.587-4.211-.335-2.97 3.412-5.896 8.371-6.539 4.959-.642 9.253 1.244 9.587 4.211.336 2.97-3.412 5.896-8.371 6.539M491.52 210.32c-2.812 7.854-8.68 12.96-13.111 11.4-4.428-1.558-5.74-9.187-2.929-17.04 2.81-7.854 8.679-12.958 13.11-11.4 4.43 1.557 5.741 9.188 2.93 17.04"/>
        <path fill="#44D3D7" d="M841 904.395L834.343 912 812 891.605l6.657-7.605L841 904.395M369.358 1088l-2.358-8.432 23.64-7.568 2.36 8.432-23.642 7.568M351 477.548L342.952 486 319 460.45l8.046-8.45L351 477.548"/>
        <path d="M-116 995H5v40h-121z"/>
        <path fill="#44D3D7" d="M75.745 1113L64 1109.152 75.255 1073 87 1076.85 75.745 1113M4.767 759L0 749.276 29.231 735 34 744.724 4.767 759"/>
        <path fill="#EF925C" d="M880 387.69c1.84-2.562 3.683-5.127 5.526-7.69 5.011.19 9.707 3.051 13.506 5.694 3.802 2.64 8.113 6.035 9.968 10.613L903.47 404c-1.856-4.578-7.81-9.118-9.966-10.616-2.157-1.498-8.497-5.502-13.504-5.693M495.632 690c-1.876-3.176-3.754-6.352-5.632-9.528 2.688-5.122 8.126-8.61 12.88-11.273 4.757-2.664 10.587-5.488 16.486-5.175l5.634 9.528c-5.901-.31-13.789 3.664-16.486 5.175-2.699 1.513-10.194 6.151-12.882 11.273M645 1251.403c.92-4.062 1.842-8.122 2.762-12.186 5.94-2.216 12.797-.99 18.502.402 5.706 1.393 12.37 3.465 16.736 8.197-.92 4.062-1.844 8.124-2.764 12.184-4.364-4.732-13.498-7.407-16.735-8.197-3.237-.79-12.562-2.619-18.501-.4M145.084 674c-1.694-1.64-3.39-3.279-5.084-4.917.73-3.606 3.416-6.672 5.83-9.114 2.416-2.444 5.453-5.166 9.084-5.969l5.086 4.915c-3.631.804-7.715 4.584-9.085 5.97-1.37 1.385-5.1 5.507-5.83 9.115M214.867 865L213 853.26c4.752-4.145 11.62-5.6 17.471-6.483 5.852-.884 12.847-1.52 18.662 1.03L251 859.545c-5.817-2.549-15.345-1.528-18.664-1.026-3.32.5-12.72 2.338-17.47 6.481"/>
        <path fill="#A0E160" d="M802.606 1260l4.394-19.72-7.083-9.28-6.917 23.4 9.606 5.6M660.088 1141l10.912-9.36-.08-8.64-13.92 10.314 3.088 7.686M735.669 792l.331-24.785L725.399 758 723 787.864 735.669 792M566.36 573L585 549.03 580.578 532 556 559.37 566.36 573M35.516 923L41 902.788 33.407 893 25 916.93 35.516 923M227 401.394L243.659 409l9.341-5.315L233.515 393 227 401.394"/>
        <path fill="#61B96F" d="M566 411.149L551.23 414 540 398.519 556.726 392 566 411.149M299 600l1.836-21.466L326.545 569 329 594.575 299 600M883 804.143L870.852 817 849 810.58 860.403 793 883 804.143M426 1220.072l-6.58 15.04L398 1236l4.392-19 23.608 3.072M240 1263l-6.63 25.6L200 1295l2.224-31.427L240 1263"/>
        <path fill="#8167CD" d="M832 1135l8.958 31 15.042-3.04-5.398-27.755L832 1135M645 942l4.217 37 17.783-.689-.782-32.64L645 942"/>
        <path fill="#E6406C" d="M723.067 1045l-.067 25 19-15.55-18.933-9.45M435.24 802L426 827l25-8.346L435.24 802M231.42 985L217 996.906l18 4.094-3.58-16M218 1139.016L230.084 1160l7.916-23-20 2.016"/>
        <path fill="#3E9EE5" d="M609 805.39L583.61 808 581 782.608 606.39 780l2.61 25.39M815.43 515L797 510.43l4.57-18.43 18.43 4.571L815.43 515M776.634 295L775 266.634 803.366 265 805 293.364 776.634 295"/>
        <path d="M480 8h182v260H480z"/>
        <path fill="#3E9EE5" d="M527 238.914L509.086 268 480 250.086 497.914 221 527 238.914M662 19.327L642.673 24 638 4.673 657.327 0 662 19.327M162 416.703L156.297 440 133 434.297 138.705 411 162 416.703M222.868 284L208 268.867 223.132 254 238 269.133 222.868 284"/>
    </g>
</svg>
