<svg xmlns="http://www.w3.org/2000/svg" width="854" height="1298" viewBox="0 0 854 1298">
    <defs>
        <filter id="a" width="362.5%" height="362.5%" x="-131.2%" y="-131.2%" filterUnits="objectBoundingBox">
            <feGaussianBlur in="SourceGraphic" stdDeviation="7"/>
        </filter>
        <filter id="b" width="310%" height="310%" x="-105%" y="-105%" filterUnits="objectBoundingBox">
            <feGaussianBlur in="SourceGraphic" stdDeviation="7"/>
        </filter>
        <filter id="c" width="423.1%" height="423.1%" x="-161.5%" y="-161.5%" filterUnits="objectBoundingBox">
            <feGaussianBlur in="SourceGraphic" stdDeviation="7"/>
        </filter>
        <filter id="d" width="333.3%" height="333.3%" x="-116.7%" y="-116.7%" filterUnits="objectBoundingBox">
            <feGaussianBlur in="SourceGraphic" stdDeviation="7"/>
        </filter>
        <filter id="e" width="282.6%" height="282.6%" x="-91.3%" y="-91.3%" filterUnits="objectBoundingBox">
            <feGaussianBlur in="SourceGraphic" stdDeviation="7"/>
        </filter>
        <filter id="f" width="400%" height="400%" x="-150%" y="-150%" filterUnits="objectBoundingBox">
            <feGaussianBlur in="SourceGraphic" stdDeviation="7"/>
        </filter>
        <filter id="g" width="347.1%" height="250%" x="-123.5%" y="-75%" filterUnits="objectBoundingBox">
            <feGaussianBlur in="SourceGraphic" stdDeviation="7"/>
        </filter>
        <filter id="h" width="244.8%" height="268%" x="-72.4%" y="-84%" filterUnits="objectBoundingBox">
            <feGaussianBlur in="SourceGraphic" stdDeviation="7"/>
        </filter>
        <filter id="i" width="290.9%" height="213.5%" x="-95.5%" y="-56.8%" filterUnits="objectBoundingBox">
            <feGaussianBlur in="SourceGraphic" stdDeviation="7"/>
        </filter>
        <filter id="j" width="423.1%" height="347.1%" x="-161.5%" y="-123.5%" filterUnits="objectBoundingBox">
            <feGaussianBlur in="SourceGraphic" stdDeviation="7"/>
        </filter>
        <filter id="k" width="347.1%" height="244.8%" x="-123.5%" y="-72.4%" filterUnits="objectBoundingBox">
            <feGaussianBlur in="SourceGraphic" stdDeviation="7"/>
        </filter>
        <filter id="l" width="216.7%" height="231.2%" x="-58.3%" y="-65.6%" filterUnits="objectBoundingBox">
            <feGaussianBlur in="SourceGraphic" stdDeviation="7"/>
        </filter>
        <filter id="m" width="240%" height="282.6%" x="-70%" y="-91.3%" filterUnits="objectBoundingBox">
            <feGaussianBlur in="SourceGraphic" stdDeviation="7"/>
        </filter>
        <filter id="n" width="244.8%" height="250%" x="-72.4%" y="-75%" filterUnits="objectBoundingBox">
            <feGaussianBlur in="SourceGraphic" stdDeviation="7"/>
        </filter>
        <filter id="o" width="261.5%" height="362.5%" x="-80.8%" y="-131.2%" filterUnits="objectBoundingBox">
            <feGaussianBlur in="SourceGraphic" stdDeviation="7"/>
        </filter>
        <filter id="p" width="450%" height="261.5%" x="-175%" y="-80.8%" filterUnits="objectBoundingBox">
            <feGaussianBlur in="SourceGraphic" stdDeviation="7"/>
        </filter>
        <filter id="q" width="282.6%" height="205%" x="-91.3%" y="-52.5%" filterUnits="objectBoundingBox">
            <feGaussianBlur in="SourceGraphic" stdDeviation="7"/>
        </filter>
        <filter id="r" width="400%" height="240%" x="-150%" y="-70%" filterUnits="objectBoundingBox">
            <feGaussianBlur in="SourceGraphic" stdDeviation="7"/>
        </filter>
        <filter id="s" width="235.5%" height="200%" x="-67.7%" y="-50%" filterUnits="objectBoundingBox">
            <feGaussianBlur in="SourceGraphic" stdDeviation="7"/>
        </filter>
        <filter id="t" width="210.5%" height="321.1%" x="-55.3%" y="-110.5%" filterUnits="objectBoundingBox">
            <feGaussianBlur in="SourceGraphic" stdDeviation="7"/>
        </filter>
        <filter id="u" width="261.5%" height="310%" x="-80.8%" y="-105%" filterUnits="objectBoundingBox">
            <feGaussianBlur in="SourceGraphic" stdDeviation="7"/>
        </filter>
        <filter id="v" width="216.7%" height="321.1%" x="-58.3%" y="-110.5%" filterUnits="objectBoundingBox">
            <feGaussianBlur in="SourceGraphic" stdDeviation="7"/>
        </filter>
        <filter id="w" width="423.1%" height="240%" x="-161.5%" y="-70%" filterUnits="objectBoundingBox">
            <feGaussianBlur in="SourceGraphic" stdDeviation="7"/>
        </filter>
        <filter id="x" width="400%" height="333.3%" x="-150%" y="-116.7%" filterUnits="objectBoundingBox">
            <feGaussianBlur in="SourceGraphic" stdDeviation="7"/>
        </filter>
        <filter id="y" width="268%" height="240%" x="-84%" y="-70%" filterUnits="objectBoundingBox">
            <feGaussianBlur in="SourceGraphic" stdDeviation="7"/>
        </filter>
        <filter id="z" width="362.5%" height="240%" x="-131.2%" y="-70%" filterUnits="objectBoundingBox">
            <feGaussianBlur in="SourceGraphic" stdDeviation="7"/>
        </filter>
        <filter id="A" width="250%" height="321.1%" x="-75%" y="-110.5%" filterUnits="objectBoundingBox">
            <feGaussianBlur in="SourceGraphic" stdDeviation="7"/>
        </filter>
        <filter id="B" width="205%" height="231.2%" x="-52.5%" y="-65.6%" filterUnits="objectBoundingBox">
            <feGaussianBlur in="SourceGraphic" stdDeviation="7"/>
        </filter>
        <filter id="C" width="310%" height="250%" x="-105%" y="-75%" filterUnits="objectBoundingBox">
            <feGaussianBlur in="SourceGraphic" stdDeviation="7"/>
        </filter>
        <filter id="D" width="240%" height="202.4%" x="-70%" y="-51.2%" filterUnits="objectBoundingBox">
            <feGaussianBlur in="SourceGraphic" stdDeviation="7"/>
        </filter>
        <filter id="E" width="275%" height="235.5%" x="-87.5%" y="-67.7%" filterUnits="objectBoundingBox">
            <feGaussianBlur in="SourceGraphic" stdDeviation="7"/>
        </filter>
        <filter id="F" width="216.7%" height="240%" x="-58.3%" y="-70%" filterUnits="objectBoundingBox">
            <feGaussianBlur in="SourceGraphic" stdDeviation="7"/>
        </filter>
        <filter id="G" width="290.9%" height="362.5%" x="-95.5%" y="-131.2%" filterUnits="objectBoundingBox">
            <feGaussianBlur in="SourceGraphic" stdDeviation="7"/>
        </filter>
        <filter id="H" width="197.7%" height="216.7%" x="-48.8%" y="-58.3%" filterUnits="objectBoundingBox">
            <feGaussianBlur in="SourceGraphic" stdDeviation="7"/>
        </filter>
        <filter id="I" width="347.1%" height="310%" x="-123.5%" y="-105%" filterUnits="objectBoundingBox">
            <feGaussianBlur in="SourceGraphic" stdDeviation="7"/>
        </filter>
        <filter id="J" width="321.1%" height="268%" x="-110.5%" y="-84%" filterUnits="objectBoundingBox">
            <feGaussianBlur in="SourceGraphic" stdDeviation="7"/>
        </filter>
        <filter id="K" width="268%" height="268%" x="-84%" y="-84%" filterUnits="objectBoundingBox">
            <feGaussianBlur in="SourceGraphic" stdDeviation="7"/>
        </filter>
        <filter id="L" width="282.6%" height="268%" x="-91.3%" y="-84%" filterUnits="objectBoundingBox">
            <feGaussianBlur in="SourceGraphic" stdDeviation="7"/>
        </filter>
        <filter id="M" width="333.3%" height="362.5%" x="-116.7%" y="-131.2%" filterUnits="objectBoundingBox">
            <feGaussianBlur in="SourceGraphic" stdDeviation="7"/>
        </filter>
        <filter id="N" width="333.3%" height="362.5%" x="-116.7%" y="-131.2%" filterUnits="objectBoundingBox">
            <feGaussianBlur in="SourceGraphic" stdDeviation="7"/>
        </filter>
        <filter id="O" width="310%" height="282.6%" x="-105%" y="-91.3%" filterUnits="objectBoundingBox">
            <feGaussianBlur in="SourceGraphic" stdDeviation="7"/>
        </filter>
        <filter id="P" width="275%" height="275%" x="-87.5%" y="-87.5%" filterUnits="objectBoundingBox">
            <feGaussianBlur in="SourceGraphic" stdDeviation="7"/>
        </filter>
        <filter id="Q" width="282.6%" height="282.6%" x="-91.3%" y="-91.3%" filterUnits="objectBoundingBox">
            <feGaussianBlur in="SourceGraphic" stdDeviation="7"/>
        </filter>
        <filter id="R" width="200%" height="200%" x="-50%" y="-50%" filterUnits="objectBoundingBox">
            <feGaussianBlur in="SourceGraphic" stdDeviation="7"/>
        </filter>
        <filter id="S" width="195.5%" height="195.5%" x="-47.7%" y="-47.7%" filterUnits="objectBoundingBox">
            <feGaussianBlur in="SourceGraphic" stdDeviation="7"/>
        </filter>
        <filter id="T" width="250%" height="250%" x="-75%" y="-75%" filterUnits="objectBoundingBox">
            <feGaussianBlur in="SourceGraphic" stdDeviation="7"/>
        </filter>
    </defs>
    <g fill="none" fill-rule="evenodd">
        <path fill="#F0705A" d="M1203.715 1549.478a7.997 7.997 0 1 1-5.432 15.044 7.998 7.998 0 0 1-4.805-10.238 7.995 7.995 0 0 1 10.237-4.806" filter="url(#a)" transform="rotate(90 900 775)"/>
        <path fill="#F0705A" d="M1109.991 1295.798c-5.41 1.1-10.69-2.395-11.79-7.806-1.097-5.411 2.398-10.688 7.809-11.79 5.41-1.1 10.688 2.395 11.788 7.808 1.1 5.411-2.395 10.688-7.807 11.788" filter="url(#b)" transform="rotate(90 900 775)"/>
        <path fill="#F0705A" d="M1391.894 1171.957a6.499 6.499 0 1 1-6.785 11.086 6.5 6.5 0 0 1 6.785-11.086" filter="url(#c)" transform="rotate(90 900 775)"/>
        <path fill="#F0705A" d="M1321.154 1093.462a9 9 0 1 1-14.306-10.922 9 9 0 0 1 14.306 10.922" filter="url(#d)" transform="rotate(90 900 775)"/>
        <path fill="#F0705A" d="M987.357 1001.033c6.335.47 11.084 5.99 10.61 12.324-.47 6.333-5.99 11.084-12.324 10.61-6.333-.473-11.084-5.99-10.61-12.322.473-6.335 5.99-11.086 12.324-10.612" filter="url(#e)" transform="rotate(90 900 775)"/>
        <path fill="#F0705A" d="M514.861 962.825a7 7 0 1 1-11.723-7.65 7 7 0 0 1 11.723 7.65" filter="url(#f)" transform="rotate(90 900 775)"/>
        <path fill="#F6D960" d="M1247.368 1306.77c-1.77 7.67-6.73 13.093-11.079 12.116-4.344-.976-6.43-7.988-4.658-15.656 1.773-7.67 6.733-13.093 11.079-12.116 4.346.978 6.431 7.986 4.658 15.656" filter="url(#g)" transform="rotate(90 900 775)"/>
        <path fill="#F6D960" d="M897.027 1507.949c7.4 5.5 10.927 13.34 7.874 17.513-3.05 4.17-11.527 3.088-18.926-2.411-7.402-5.502-10.93-13.34-7.876-17.511 3.05-4.17 11.525-3.093 18.928 2.409" filter="url(#h)" transform="rotate(90 900 775)"/>
        <path fill="#F6D960" d="M1070.368 1110.464c2.024 10.153-.973 19.299-6.698 20.422-5.726 1.124-12.01-6.197-14.037-16.352-2.027-10.156.973-19.297 6.698-20.42 5.723-1.124 12.008 6.197 14.037 16.35" filter="url(#i)" transform="rotate(90 900 775)"/>
        <path fill="#F6D960" d="M777.987 1315.854c2.597 4.459 2.694 9.26.216 10.72-2.477 1.465-6.592-.97-9.19-5.428-2.597-4.458-2.694-9.26-.217-10.722 2.479-1.46 6.591.97 9.19 5.43" filter="url(#j)" transform="rotate(90 900 775)"/>
        <path fill="#F6D960" d="M624.4 1122.281c-1.729 7.949-6.67 13.592-11.03 12.607-4.364-.986-6.499-8.225-4.77-16.171 1.73-7.947 6.669-13.59 11.032-12.605 4.364.982 6.497 8.223 4.768 16.17" filter="url(#k)" transform="rotate(90 900 775)"/>
        <path fill="#44D3D7" d="M1316.796 993l-7.796-9.172L1337.202 961l7.798 9.172L1316.796 993" filter="url(#l)" transform="rotate(90 900 775)"/>
        <path fill="#44D3D7" d="M1016.711 1448l-4.711-8.593 25.289-14.407 4.711 8.59-25.289 14.41" filter="url(#m)" transform="rotate(90 900 775)"/>
        <path fill="#44D3D7" d="M975 890.395L968.343 898 946 877.605l6.657-7.605L975 890.395" filter="url(#n)" transform="rotate(90 900 775)"/>
        <path fill="#44D3D7" d="M670.358 1029l-2.358-8.432 23.64-7.568 2.36 8.432-23.642 7.568" filter="url(#o)" transform="rotate(90 900 775)"/>
        <path fill="#44D3D7" d="M339.208 1159l-8.208-1.267 3.792-24.733 8.208 1.27-3.792 24.73" filter="url(#p)" transform="rotate(90 900 775)"/>
        <path fill="#44D3D7" d="M168.745 1078L157 1074.152 168.255 1038l11.745 3.85-11.255 36.15" filter="url(#q)" transform="rotate(90 900 775)"/>
        <path fill="#EF925C" d="M1411.246 862c-2.935-.45-5.868-.903-8.803-1.357-1.96-4.576-1.547-10.117-.939-14.756.608-4.639 1.635-10.087 4.691-13.887 2.937.454 5.87.903 8.805 1.357-3.06 3.802-4.35 11.257-4.694 13.889-.345 2.632-1.022 10.18.94 14.754" filter="url(#r)" transform="rotate(90 900 775)"/>
        <path fill="#EF925C" d="M1164 959.54l11.636-6.54c6.142 3.321 10.251 9.898 13.38 15.638 3.128 5.743 6.428 12.773 5.935 19.824L1183.314 995c.493-7.049-4.16-16.564-5.935-19.821-1.773-3.258-7.238-12.318-13.379-15.639" filter="url(#s)" transform="rotate(90 900 775)"/>
        <path fill="#EF925C" d="M432.867 1035L431 1023.26c4.752-4.145 11.62-5.6 17.471-6.483 5.852-.884 12.847-1.52 18.662 1.03l1.867 11.738c-5.817-2.549-15.345-1.528-18.664-1.026-3.32.5-12.72 2.338-17.47 6.481" filter="url(#t)" transform="rotate(90 900 775)"/>
        <path fill="#EF925C" d="M445 1427.985l4.459-6.983c4.422-.087 8.709 2.166 12.197 4.274 3.488 2.11 7.466 4.849 9.344 8.741-1.49 2.33-2.974 4.656-4.461 6.983-1.878-3.895-7.363-7.546-9.342-8.74-1.98-1.197-7.775-4.363-12.197-4.275" filter="url(#u)" transform="rotate(90 900 775)"/>
        <path fill="#EF925C" d="M191 1515.937l2.012-11.38c5.544-2.357 12.134-1.59 17.639-.608 5.502.983 11.953 2.543 16.349 6.672-.673 3.794-1.341 7.587-2.014 11.379-4.396-4.13-13.227-6.115-16.35-6.672-3.122-.559-12.092-1.75-17.636.61" filter="url(#v)" transform="rotate(90 900 775)"/>
        <path fill="#A0E160" d="M1113.604 1595l2.396-21.138-8.384-8.862-4.616 25.282 10.604 4.718" filter="url(#w)" transform="rotate(90 900 775)"/>
        <path fill="#A0E160" d="M776.088 1141l10.912-9.36-.08-8.64-13.92 10.314 3.088 7.686" filter="url(#x)" transform="rotate(90 900 775)"/>
        <path fill="#A0E160" d="M624.925 1357l19.675-15.246.4-14.754-25 16.675 4.925 13.325" filter="url(#y)" transform="rotate(90 900 775)"/>
        <path fill="#A0E160" d="M151.516 923L157 902.788 149.407 893 141 916.93l10.516 6.07" filter="url(#z)" transform="rotate(90 900 775)"/>
        <path fill="#61B96F" d="M542 1220.072l-6.58 15.04L514 1236l4.392-19 23.608 3.072" filter="url(#A)" transform="rotate(90 900 775)"/>
        <path fill="#61B96F" d="M356 1263l-6.63 25.6L316 1295l2.224-31.427L356 1263" filter="url(#B)" transform="rotate(90 900 775)"/>
        <path fill="#61B96F" d="M721.59 1522l-16.065-5.659L703 1494l20 3.043-1.41 24.957" filter="url(#C)" transform="rotate(90 900 775)"/>
        <path fill="#61B96F" d="M962.052 1660l-23.863-9.21L936 1619l30 5.807-3.948 35.193" filter="url(#D)" transform="rotate(90 900 775)"/>
        <path fill="#8167CD" d="M906 1140l8.958 31 15.042-3.04-5.398-27.755L906 1140" filter="url(#E)" transform="rotate(90 900 775)"/>
        <path fill="#8167CD" d="M829.772 1425L864 1411.509 858.925 1395 828 1404.145l1.772 20.855" filter="url(#F)" transform="rotate(90 900 775)"/>
        <path fill="#8167CD" d="M746 1634.323l18.417 6.677 3.583-8.7-15.602-7.3-6.398 9.323" filter="url(#G)" transform="rotate(90 900 775)"/>
        <path fill="#8167CD" d="M481 1394.518L512.537 1417 524 1403.06 498.163 1381 481 1394.518" filter="url(#H)" transform="rotate(90 900 775)"/>
        <path fill="#E6406C" d="M1052 911.296L1065.018 927l3.982-20-17 4.296" filter="url(#I)" transform="rotate(90 900 775)"/>
        <path fill="#E6406C" d="M817.067 923L817 948l19-15.55-18.933-9.45" filter="url(#J)" transform="rotate(90 900 775)"/>
        <path fill="#E6406C" d="M561.24 823L552 848l25-8.346L561.24 823" filter="url(#K)" transform="rotate(90 900 775)"/>
        <path fill="#E6406C" d="M343 848.068L359.029 869 366 844l-23 4.068" filter="url(#L)" transform="rotate(90 900 775)"/>
        <path fill="#E6406C" d="M481.393 1297L472 1313l18-2.508-8.607-13.492" filter="url(#M)" transform="rotate(90 900 775)"/>
        <path fill="#E6406C" d="M287.42 985L273 996.906l18 4.094-3.58-16" filter="url(#N)" transform="rotate(90 900 775)"/>
        <path fill="#E6406C" d="M249 1229.016L261.084 1250l7.916-23-20 2.016" filter="url(#O)" transform="rotate(90 900 775)"/>
        <path fill="#3E9EE5" d="M1248 1430.174L1234.826 1441 1224 1427.826l13.174-10.826 10.826 13.174" filter="url(#P)" transform="rotate(90 900 775)"/>
        <path fill="#3E9EE5" d="M937.403 1322L928 1308.404l13.595-9.404 9.405 13.596-13.597 9.404" filter="url(#Q)" transform="rotate(90 900 775)"/>
        <path fill="#3E9EE5" d="M1239.97 1213l-32.97-9.031 9.031-32.969 32.969 9.031-9.03 32.969" filter="url(#R)" transform="rotate(90 900 775)"/>
        <path fill="#3E9EE5" d="M1335.024 873L1305 859.026 1318.973 829 1349 842.974 1335.024 873" filter="url(#S)" transform="rotate(90 900 775)"/>
        <path fill="#3E9EE5" d="M709 857.39L683.61 860 681 834.608 706.39 832l2.61 25.39" filter="url(#T)" transform="rotate(90 900 775)"/>
    </g>
</svg>
