<?xml version="1.0" encoding="UTF-8"?>
<svg width="214px" height="234px" viewBox="0 0 214 234" version="1.1" xmlns="http://www.w3.org/2000/svg" xmlns:xlink="http://www.w3.org/1999/xlink">
    <!-- Generator: Sketch 50.2 (55047) - http://www.bohemiancoding.com/sketch -->
    <title>hexframe</title>
    <desc>Created with Sketch.</desc>
    <defs></defs>
    <g id="Page-1" stroke="none" stroke-width="1" fill="none" fill-rule="evenodd">
        <g id="Artboard-2" transform="translate(-383.000000, -187.000000)">
            <g id="hexframe" transform="translate(383.000000, 187.000000)">
                <path d="M1,1 L213,1 L213,234 L1,234 L1,1 Z M115.83326,24.9750544 C110.349402,21.886445 103.650598,21.886445 98.1667402,24.9750544 L29.1667402,63.8371234 C23.503756,67.0266202 20,73.0212602 20,79.5206663 L20,156.479334 C20,162.97874 23.503756,168.97338 29.1667402,172.162877 L98.1667402,211.024946 C103.650598,214.113555 110.349402,214.113555 115.83326,211.024946 L184.83326,172.162877 C190.496244,168.97338 194,162.97874 194,156.479334 L194,79.5206663 C194,73.0212602 190.496244,67.0266202 184.83326,63.8371234 L115.83326,24.9750544 Z" id="Combined-Shape" fill="#FFFFFF"></path>
                <path d="M114.823819,4.67869469 C109.963718,1.9542171 104.036282,1.9542171 99.1761806,4.67869469 L11.0361806,54.0882481 C5.98672963,56.9188712 2.86,62.256161 2.86,68.0448899 L2.86,165.95511 C2.86,171.743839 5.98672963,177.081129 11.0361806,179.911752 L99.1761806,229.321305 C104.036282,232.045783 109.963718,232.045783 114.823819,229.321305 L202.963819,179.911752 C208.01327,177.081129 211.14,171.743839 211.14,165.95511 L211.14,68.0448899 C211.14,62.256161 208.01327,56.9188712 202.963819,54.0882481 L114.823819,4.67869469 Z M115.801797,2.93411446 L203.941797,52.3436679 C209.622429,55.5281189 213.14,61.5325699 213.14,68.0448899 L213.14,165.95511 C213.14,172.46743 209.622429,178.471881 203.941797,181.656332 L115.801797,231.065886 C110.334182,234.130923 103.665818,234.130923 98.1982032,231.065886 L10.0582032,181.656332 C4.37757083,178.471881 0.86,172.46743 0.86,165.95511 L0.86,68.0448899 C0.86,61.5325699 4.37757083,55.5281189 10.0582032,52.3436679 L98.1982032,2.93411446 C103.665818,-0.130922829 110.334182,-0.130922829 115.801797,2.93411446 Z" id="Polygon-Copy" fill-opacity="0.4" fill="#C6EB38" fill-rule="nonzero"></path>
            </g>
        </g>
    </g>
</svg>