<?xml version="1.0" encoding="UTF-8"?>
<svg width="194px" height="59px" viewBox="0 0 194 59" version="1.1" xmlns="http://www.w3.org/2000/svg" xmlns:xlink="http://www.w3.org/1999/xlink">
    <!-- Generator: Sketch 50.2 (55047) - http://www.bohemiancoding.com/sketch -->
    <title>logo_moscow_white</title>
    <desc>Created with Sketch.</desc>
    <defs></defs>
    <g id="logo_moscow_white" stroke="none" stroke-width="1" fill="none" fill-rule="evenodd">
        <path d="M64.9694,29.2275 C64.9114,29.3525 64.8694,29.4205 64.8454,29.4565 C64.8194,29.4535 64.7884,29.4485 64.7624,29.4435 C64.7244,29.4375 64.6854,29.4315 64.6434,29.4255 L64.6034,29.4205 C64.4734,29.4025 64.1804,29.3615 64.0734,29.3055 C64.0494,29.2545 64.0194,29.1895 63.9854,29.1165 C63.9124,28.9595 63.7624,28.6395 63.6894,28.4455 C63.8084,28.3075 64.0704,28.0205 64.6424,27.4335 L64.8344,27.2345 C64.9614,27.1025 65.0644,26.9955 65.1614,26.9035 C65.2974,26.7955 65.4434,26.6825 65.5994,26.5625 C65.6234,26.5475 65.6474,26.5325 65.6704,26.5175 C65.7374,26.6395 65.8184,26.7615 65.9114,26.8895 C65.6124,27.6815 65.2294,28.6715 64.9694,29.2275 M56.9264,30.1855 C56.7144,30.2855 56.1894,30.4525 55.5824,30.6165 C55.9364,30.3615 56.4064,30.0325 56.9234,29.6755 C56.9564,29.7355 56.9904,29.7975 57.0264,29.8595 C56.9964,29.9585 56.9594,30.0805 56.9264,30.1855 M51.6074,31.1595 C51.6034,31.1635 51.6004,31.1675 51.5974,31.1715 C51.4834,31.1155 51.4014,31.0605 51.2174,30.8995 L51.1784,30.8675 C50.8784,30.6155 50.8034,30.4255 50.9114,30.1885 C50.9794,30.0405 51.2194,29.7165 51.4414,29.4365 C51.6114,29.6655 51.9354,29.8155 52.2664,29.9125 C52.1004,30.3005 51.8604,30.8085 51.6074,31.1595 M76.4294,21.7695 C76.1874,21.6745 75.9124,21.7945 75.8184,22.0385 C74.6934,24.9355 72.8664,29.5245 72.3184,30.6395 C72.2454,30.6195 72.1764,30.5975 72.0914,30.5695 L72.0244,30.5475 C71.9994,30.5395 71.9814,30.5325 71.9694,30.5265 C71.9654,30.4615 71.9804,30.3385 71.9864,30.2935 L71.9924,30.2315 C72.1694,28.7495 72.3504,27.2175 72.4784,26.3405 C72.5484,25.8605 72.3464,25.6675 72.1654,25.5895 C72.0494,25.5395 71.7484,25.4645 71.4554,25.8385 C70.7694,26.7345 69.7104,28.1125 69.3294,28.5955 C69.2734,28.5615 69.2154,28.5265 69.1644,28.4925 C69.4604,27.7165 70.4374,25.1565 70.5094,24.9735 C70.6224,24.6855 70.5524,24.3925 70.3304,24.2265 C70.0894,24.0455 69.7494,24.0735 69.4644,24.2955 C68.9824,24.6715 67.5014,25.9945 67.4464,26.0435 C67.3324,26.1415 67.2344,26.2205 67.1494,26.2835 C67.1694,26.2325 67.1864,26.1855 67.2024,26.1445 C67.2844,25.9305 67.2434,25.7585 67.1944,25.6515 C67.0694,25.3825 66.7874,25.2835 66.5784,25.2105 C66.3074,25.1155 65.9704,24.9975 65.6854,25.2235 C65.6024,25.2895 65.5114,25.3965 65.4724,25.5685 C65.3264,25.5845 65.1984,25.6795 65.0594,25.7855 C64.8594,25.9125 64.6994,26.0405 64.5454,26.1855 C63.7534,26.8125 63.2624,27.2525 62.8554,27.6175 C62.6654,27.7885 62.4984,27.9385 62.3304,28.0795 C61.7384,28.5765 61.3914,28.8545 61.2044,29.0035 L61.0904,29.0955 C60.9854,29.1815 60.8794,29.2695 60.7774,29.3565 C60.5494,29.5475 60.2664,29.7835 60.1464,29.8465 C60.0354,29.7395 59.8994,29.5665 59.6394,29.1455 C59.6134,29.1045 59.6234,28.9515 59.9764,28.3995 L60.1234,28.1685 C60.3534,27.8035 60.5594,27.4805 60.9804,26.9375 C60.9864,26.9335 60.9964,26.9275 61.0014,26.9235 C61.0194,26.9125 61.0414,26.8985 61.0654,26.8835 C61.0634,26.9135 61.0624,26.9425 61.0614,26.9725 L61.0604,26.9985 L61.0604,27.0225 C61.0604,27.0365 61.0594,27.0505 61.0594,27.0645 L61.0594,27.0985 L61.0614,27.0985 C61.0584,27.1485 61.0584,27.1985 61.0574,27.2445 C61.0544,27.5055 61.2634,27.7195 61.5244,27.7225 L61.5304,27.7225 C61.7884,27.7225 61.9994,27.5145 62.0024,27.2545 L62.0044,27.0815 L62.0044,27.0745 C62.0054,26.9635 62.0134,26.8385 62.0204,26.7185 C62.0484,26.2295 62.0784,25.7235 61.5854,25.6485 C61.3454,25.6115 61.1244,25.7245 60.4924,26.1275 C60.4614,26.1475 58.8404,27.2105 57.2444,28.3005 C57.0004,27.8535 56.7794,27.4395 56.6154,27.1225 C56.7864,26.9755 57.1354,26.6765 57.2024,26.6235 C57.5854,26.3145 57.4084,25.9565 57.3244,25.7865 C57.0764,25.2865 56.5964,25.3675 56.2114,25.4325 L56.0304,25.4625 C55.7564,25.5055 55.5994,25.6535 55.5164,25.7695 C55.2954,26.0815 55.3664,26.4825 55.4084,26.7225 C55.4154,26.7625 55.4354,26.8225 55.4694,26.9045 C55.0154,27.3415 54.5904,27.7565 54.2234,28.1145 C53.8544,28.4755 53.4984,28.8225 53.2784,29.0315 C53.0544,28.5685 52.5994,28.1115 52.3934,27.9675 C51.9904,27.6875 51.6924,27.8295 51.5814,27.9025 C51.4114,28.0165 51.3234,28.1955 51.2864,28.3985 C51.1554,28.4005 51.0254,28.4565 50.9334,28.5645 C49.8854,29.8005 48.5244,31.3995 47.5064,32.5905 C48.4164,29.6395 49.9304,24.7095 49.9764,24.4795 C50.0644,24.0445 49.8394,23.7635 49.5924,23.6865 C49.3514,23.6115 49.0364,23.7005 48.8674,24.0655 C48.5414,24.6445 43.4274,33.1775 42.8384,34.1275 C42.6934,34.0915 42.5504,34.0505 42.3324,33.9825 C42.7554,32.7835 45.7564,24.2805 46.0994,23.3355 C46.2254,22.9905 46.0744,22.6215 45.7154,22.3955 C45.6534,22.3565 45.5484,22.2955 45.4364,22.2305 C45.3244,22.1665 45.2054,22.0975 45.1204,22.0445 C44.7434,21.8115 44.3344,21.8545 44.1254,22.1495 C43.9604,22.3805 35.5164,35.0005 35.1754,35.5105 C35.0294,35.7275 34.9734,36.0755 35.1904,36.2215 C35.2714,36.2755 35.3974,36.3335 35.4874,36.3335 C35.6394,36.3335 35.8804,36.1415 35.9714,36.0055 C38.6074,32.0765 43.8234,24.2835 44.7434,22.9205 C44.8124,22.9615 44.8884,23.0055 44.9624,23.0485 C45.0344,23.0905 45.1044,23.1305 45.1574,23.1625 C44.5914,24.7405 41.4254,33.7135 41.3904,33.8105 C41.3554,33.9125 41.2634,34.1825 41.3984,34.4505 C41.4884,34.6285 41.6524,34.7575 41.8864,34.8325 C42.2744,34.9565 42.4794,35.0155 42.7304,35.0735 C42.8494,35.1005 43.2134,35.1845 43.5304,34.7935 C43.6364,34.6635 46.4534,29.9565 48.2514,26.9415 C47.3354,29.9395 45.9634,34.3915 45.9504,34.4285 C45.8674,34.6435 45.9524,34.8875 46.1504,35.0055 C46.4934,35.2085 46.7014,34.9705 46.9664,34.6685 C47.1024,34.5125 47.2964,34.2885 47.5274,34.0185 C47.9884,33.4815 48.6004,32.7655 49.2124,32.0475 C49.5104,31.6985 49.8074,31.3495 50.0864,31.0205 C50.1884,31.2065 50.3434,31.3995 50.5724,31.5915 L50.5944,31.6095 C50.8454,31.8315 50.9974,31.9345 51.2424,32.0495 C51.5444,32.1915 51.9864,32.2485 52.3734,31.7115 C52.7254,31.2235 53.0404,30.5205 53.2204,30.0795 C53.2854,30.0845 53.3234,30.0865 53.3264,30.0865 C53.5574,30.0865 53.5574,30.0865 54.8844,28.7905 C55.1884,28.4935 55.5344,28.1565 55.9024,27.7995 C56.0534,28.0915 56.2404,28.4385 56.4604,28.8405 C55.2604,29.6745 54.2384,30.4235 54.1554,30.6095 C54.0354,30.8765 53.8554,31.2795 54.1144,31.5935 C54.3544,31.8855 54.7334,31.7995 54.8954,31.7615 C57.6074,31.1405 57.7124,30.8225 57.7814,30.6125 C57.8534,30.3955 57.9894,29.9375 57.9894,29.9375 C58.0254,29.8145 58.0114,29.6835 57.9484,29.5715 C57.8674,29.4285 57.7864,29.2835 57.7054,29.1375 C58.1174,28.8555 58.5344,28.5725 58.9334,28.3025 C58.7154,28.7075 58.5564,29.1925 58.8354,29.6435 C59.1394,30.1345 59.3244,30.3785 59.5414,30.5745 C59.8484,30.8515 60.1604,30.8895 60.5514,30.7005 C60.7624,30.5975 61.0054,30.3975 61.3844,30.0805 C61.4834,29.9975 61.5854,29.9115 61.6874,29.8285 L61.7954,29.7415 C61.9754,29.5975 62.3014,29.3365 62.8454,28.8805 C62.9124,29.0475 63.0064,29.2525 63.1284,29.5155 C63.1704,29.6035 63.2054,29.6795 63.2264,29.7295 C63.4364,30.2125 64.0604,30.2985 64.4744,30.3565 L64.6124,30.3765 C65.1334,30.4615 65.4804,30.3665 65.8254,29.6275 C66.0714,29.1015 66.4024,28.2565 66.6924,27.4955 C67.0424,27.5085 67.4524,27.2835 68.0684,26.7545 C68.0774,26.7465 68.6494,26.2355 69.1964,25.7595 C68.8014,26.7915 68.2734,28.1765 68.2034,28.3615 C68.0004,28.8105 68.3854,29.0955 68.5334,29.2045 C68.7234,29.3455 69.0184,29.5065 69.1074,29.5525 C69.3884,29.6985 69.6414,29.6535 69.8794,29.4145 C69.9434,29.3495 70.4434,28.7085 71.3704,27.5015 C71.2724,28.2875 71.1624,29.2135 71.0544,30.1205 L71.0474,30.1815 C71.0084,30.5085 70.9274,31.1865 71.7344,31.4475 L71.8004,31.4685 C71.9904,31.5305 72.1554,31.5835 72.4584,31.6375 C72.5004,31.6445 72.5394,31.6485 72.5764,31.6485 C72.9324,31.6485 73.0904,31.2795 73.6494,29.9745 C73.9684,29.2295 74.3964,28.1885 74.9214,26.8815 C75.8144,24.6595 76.6904,22.4025 76.6984,22.3805 C76.7934,22.1375 76.6734,21.8635 76.4294,21.7695" id="Fill-1" fill="#FFFFFF"></path>
        <path d="M66.1672,32.2866 L49.7302,33.3296 C49.4692,33.3456 49.2712,33.5706 49.2882,33.8306 C49.3042,34.0806 49.5112,34.2736 49.7592,34.2736 C49.7692,34.2736 49.7792,34.2726 49.7892,34.2726 L66.2272,33.2296 C66.4872,33.2136 66.6852,32.9886 66.6682,32.7286 C66.6522,32.4676 66.4222,32.2726 66.1672,32.2866" id="Fill-3" fill="#FFFFFF"></path>
        <path d="M165.8361,24.6968 L165.8381,24.6938 C163.0601,22.8968 160.6201,21.7818 158.4661,20.7988 C156.1731,19.7508 154.3531,18.9178 152.6991,17.5438 C151.2131,16.2498 150.4881,14.7558 150.4881,12.9958 C150.4881,10.1858 152.7741,7.8908 155.5851,7.8908 C158.3941,7.8908 160.6811,10.1368 160.6811,12.9698 L168.4021,12.9698 C168.4021,5.8878 162.6521,0.1688 155.5851,0.1688 C148.5171,0.1688 142.7661,5.9368 142.7661,13.0048 C142.7661,17.0208 144.4331,20.5758 147.5961,23.3428 L147.5971,23.3438 C147.8341,23.5508 148.0761,23.7548 148.3291,23.9518 L148.3361,23.9418 C150.5911,25.6878 152.8641,26.7288 155.2581,27.8218 C157.1461,28.6848 159.0951,29.5748 161.2381,30.9188 L161.2351,30.9248 C164.8261,33.1468 166.7241,36.5698 166.7241,40.8018 C166.7241,46.9798 162.3491,51.6578 156.5471,51.6578 C150.7451,51.6578 146.3701,46.9628 146.3701,40.8928 L138.6481,40.8928 C138.6481,51.2128 146.5101,59.3798 156.5471,59.3798 C166.5841,59.3798 174.4461,51.2108 174.4461,40.8048 C174.4461,34.0718 171.3941,28.3658 165.8361,24.6968" id="Fill-5" fill="#FFFFFF"></path>
        <polygon id="Fill-7" fill="#FFFFFF" points="105.8088 31.0923 97.6618 0.9023 97.6618 0.8923 89.9728 0.8923 89.9728 58.3573 97.6618 58.3573 97.6618 28.1963 105.8088 58.3573 105.8088 58.3563 105.8088 58.3573 113.4978 58.3573 113.4978 0.8923 105.8088 0.8923"></polygon>
        <polygon id="Fill-9" fill="#FFFFFF" points="193.5065 0.8926 169.9815 0.8926 169.9815 8.5406 178.0005 8.5406 178.0005 58.3576 185.6895 58.3576 185.6895 8.5406 193.5065 8.5406"></polygon>
        <polygon id="Fill-11" fill="#FFFFFF" points="126.6311 0.8926 122.9891 0.8926 118.9421 0.8926 118.9421 8.5406 118.9421 50.7096 118.9421 58.3576 122.9891 58.3576 126.6311 58.3576 138.6481 58.3576 138.6481 50.7096 126.6311 50.7096 126.6311 50.6686 126.6311 40.7536 126.6311 33.4496 138.6481 33.4496 138.6481 25.8006 126.6311 25.8006 126.6311 8.5816 126.6311 8.5406 138.6481 8.5406 138.6481 0.8926"></polygon>
        <polygon id="Fill-13" fill="#FFFFFF" points="15.3776 25.7803 7.6896 25.7803 7.6896 0.8923 0.0006 0.8923 0.0006 58.3573 7.6896 58.3573 7.6896 33.4683 15.3776 33.4683 15.3776 58.3573 23.0666 58.3573 23.0666 0.8923 15.3776 0.8923"></polygon>
        <g id="Group-17" transform="translate(26.000000, -0.619900)" fill="#FFFFFF">
            <path d="M30.4431,52.2014 C18.3511,52.2014 8.5131,42.3634 8.5131,30.2714 C8.5131,18.1794 18.3511,8.3414 30.4431,8.3414 C42.5351,8.3414 52.3731,18.1794 52.3731,30.2714 C52.3731,42.3634 42.5351,52.2014 30.4431,52.2014 M30.4431,0.6194 C14.0931,0.6194 0.7921,13.9214 0.7921,30.2714 C0.7921,46.6214 14.0931,59.9234 30.4431,59.9234 C46.7931,59.9234 60.0941,46.6214 60.0941,30.2714 C60.0941,13.9214 46.7931,0.6194 30.4431,0.6194" id="Fill-15"></path>
        </g>
    </g>
</svg>